<?xml version="1.0" standalone="no"?>
<!DOCTYPE svg PUBLIC "-//W3C//DTD SVG 20010904//EN"
 "http://www.w3.org/TR/2001/REC-SVG-20010904/DTD/svg10.dtd">
<svg version="1.0" xmlns="http://www.w3.org/2000/svg"
 width="1024.000000pt" height="1024.000000pt" viewBox="0 0 1024.000000 1024.000000"
 preserveAspectRatio="xMidYMid meet">
<metadata>
Created by potrace 1.11, written by Peter Selinger 2001-2013
</metadata>
<g transform="translate(0.000000,1024.000000) scale(0.100000,-0.100000)"
fill="#000000" stroke="none">
<path d="M3266 8308 c-5 -15 -96 -845 -96 -868 0 -9 27 -27 62 -44 81 -38 149
-106 179 -182 46 -117 42 -163 -160 -1979 -106 -960 -190 -1676 -202 -1726
-45 -195 -140 -314 -299 -375 -25 -9 -48 -20 -53 -24 -4 -3 -27 -190 -52 -416
-24 -225 -46 -421 -48 -437 l-4 -27 957 0 956 0 48 441 c27 242 47 442 45 443
-2 2 -28 16 -57 30 -106 53 -167 131 -191 244 -18 87 -13 262 15 524 l27 246
656 5 c708 5 746 7 971 63 342 85 619 251 833 499 246 285 361 582 441 1150
99 692 120 1185 63 1425 -49 205 -129 399 -213 517 -52 74 -180 197 -261 254
-200 138 -448 210 -827 239 -203 16 -2786 13 -2790 -2z m2294 -1178 c228 -26
377 -107 453 -247 88 -164 101 -512 32 -859 -77 -385 -218 -567 -496 -644
-117 -32 -244 -39 -646 -40 l-373 0 0 30 c0 17 43 417 95 888 52 472 95 864
95 870 0 15 713 17 840 2z"/>
<path d="M4866 6968 c-3 -7 -39 -330 -80 -718 -42 -388 -79 -715 -82 -728 l-5
-23 113 3 113 3 67 600 c37 330 67 610 67 623 l1 24 419 -4 419 -3 -10 25
c-44 115 -151 178 -343 199 -140 16 -675 15 -679 -1z"/>
<path d="M7443 7579 c3 -8 17 -52 31 -97 64 -202 71 -262 70 -572 0 -218 -6
-334 -22 -495 -68 -650 -132 -1006 -227 -1260 -132 -355 -397 -677 -717 -873
-164 -101 -305 -158 -519 -211 -242 -60 -279 -63 -927 -68 l-592 -5 -5 -21
c-17 -83 -37 -348 -33 -451 6 -159 27 -199 128 -245 l45 -20 7 37 c4 20 17
134 29 253 l22 216 601 6 c717 7 787 13 1084 98 364 105 691 350 905 680 183
281 266 565 341 1169 73 583 93 967 61 1165 -33 204 -105 419 -190 570 -45 79
-101 155 -92 124z"/>
<path d="M4745 2937 c-4 -25 -95 -850 -95 -863 0 -2 -413 -4 -919 -4 l-918 0
-6 -37 c-3 -21 -9 -73 -13 -115 l-7 -78 1029 0 1029 0 54 488 c29 268 55 497
58 508 4 17 -1 23 -23 28 -46 12 -127 54 -156 81 l-27 25 -6 -33z"/>
</g>
</svg>
